<svg xmlns="http://www.w3.org/2000/svg" width="243" height="28.572" viewBox="0 0 243 28.572"><g transform="translate(-12.34 -5.182)"><text transform="translate(65.34 25.182)" fill="#3d362c" font-size="19" font-family="Poppins-Medium, Poppins" font-weight="500"><tspan x="0" y="0" letter-spacing="0.075em">EMERS</tspan><tspan y="0" letter-spacing="0.074em">O</tspan><tspan y="0" letter-spacing="0.075em">N</tspan><tspan y="0" letter-spacing="0.074em"> </tspan><tspan y="0" letter-spacing="0.075em">VISUAL</tspan><tspan y="0">S</tspan></text><g transform="translate(12.34 5.182)"><path d="M9.411,11.948V5.459a.485.485,0,0,1,.483-.483h13.1l3.86,7.456H9.894a.483.483,0,0,1-.483-.483" transform="translate(-9.411 -4.975)" fill="#3d362c"/><path d="M9.411,11.034H28.445l3.881,7.489H9.894a.483.483,0,0,1-.483-.483Z" transform="translate(-9.411 -0.5)" fill="#3d362c"/><path d="M9.9,17.111H33.92l3.869,7.471H9.9a.484.484,0,0,1-.483-.485v-6.5a.483.483,0,0,1,.483-.483" transform="translate(-9.41 3.99)" fill="#3d362c"/><path d="M33.864,17.84,27.307,4.975H19.32l14.8,28.571L48.944,4.982H40.515Z" transform="translate(-2.091 -4.975)" fill="#3d362c"/></g></g></svg>