<svg xmlns="http://www.w3.org/2000/svg" xmlns:xlink="http://www.w3.org/1999/xlink" width="22" height="16" viewBox="0 0 22 16">
  <defs>
    <clipPath id="clip-path">
      <rect id="Rectangle_21" data-name="Rectangle 21" width="22" height="16" transform="translate(0 0)" fill="#3d362c"/>
    </clipPath>
  </defs>
  <g id="desktopFooterEmail" transform="translate(0 0)">
    <g id="Group_17" data-name="Group 17" transform="translate(0)" clip-path="url(#clip-path)">
      <path id="Path_6" data-name="Path 6" d="M2.266,0A2.278,2.278,0,0,0,0,2.266V12.842a2.278,2.278,0,0,0,2.266,2.266H18.885a2.278,2.278,0,0,0,2.266-2.266V2.266A2.278,2.278,0,0,0,18.885,0Zm.126,1.511H18.751L11.087,8.585a.667.667,0,0,1-1.039,0L2.392,1.511M1.511,2.746,9.017,9.694a2.3,2.3,0,0,0,3.1,0L19.64,2.746v10.1a.738.738,0,0,1-.755.755H2.266a.738.738,0,0,1-.755-.755V2.746" transform="translate(0.511 0.022)" fill="#3d362c"/>
    </g>
  </g>
</svg>
