<svg xmlns="http://www.w3.org/2000/svg" xmlns:xlink="http://www.w3.org/1999/xlink" width="126.266" height="184.752" viewBox="0 0 126.266 184.752">
  <defs>
    <clipPath id="clip-path">
      <rect id="Rectangle_17" data-name="Rectangle 17" width="52.107" height="94.227" fill="none"/>
    </clipPath>
  </defs>
  <g id="desktopHomeScribble" transform="translate(-1646.974 -1230.413)">
    <text id="video" transform="matrix(0.996, -0.087, 0.087, 0.996, 1768.559, 1322.411)" fill="#550710" font-size="100" font-family="RetroSignatureRegular, Retro Signature"><tspan x="-111.9" y="0">video</tspan></text>
    <g id="Group_11" data-name="Group 11" transform="translate(1658 1320.938)">
      <g id="Group_10" data-name="Group 10" transform="translate(0 0)" clip-path="url(#clip-path)">
        <path id="Path_4" data-name="Path 4" d="M50.666.044S55.947,60.3,20.144,62.1c-35.156,1.77-15.861-47.657,9.678-24.544,22.04,19.943.162,42.72-28.58,53.07" transform="translate(0.445 0.02)" fill="none" stroke="#3f0b12" stroke-miterlimit="10" stroke-width="1"/>
        <path id="Path_5" data-name="Path 5" d="M8.5,55.821a.724.724,0,0,1,.142,1.012l-6.66,8.832,10.819,2.3a.723.723,0,0,1-.3,1.414L.573,66.844A.724.724,0,0,1,.145,65.7l7.346-9.737A.722.722,0,0,1,8.5,55.821" transform="translate(0 24.831)" fill="#3f0b12"/>
      </g>
    </g>
  </g>
</svg>
