<svg id="mobileFooterYoutube" xmlns="http://www.w3.org/2000/svg" width="35.307" height="27.461" viewBox="0 0 35.307 27.461">
  <path id="Youtube" d="M17.653,27.461h0c-.092,0-9.225-.066-11.992-.374-.149-.035-.33-.061-.54-.091A4.95,4.95,0,0,1,1.765,25.4a9.39,9.39,0,0,1-1.4-3.87A62.513,62.513,0,0,1,0,15.229V12.295C0,9.154.362,5.961.365,5.929s.318-2.7,1.4-3.87A4.809,4.809,0,0,1,5.19.446H5.2L5.3.437C10.169.067,17.579,0,17.653,0s7.485.067,12.357.437l.167.014a4.5,4.5,0,0,1,3.363,1.608,9.39,9.39,0,0,1,1.4,3.87c0,.032.365,3.223.365,6.366v2.934c0,3.079-.362,6.271-.365,6.3a9.393,9.393,0,0,1-1.4,3.87,4.809,4.809,0,0,1-3.425,1.613h-.007l-.1.009C25.137,27.456,17.728,27.461,17.653,27.461ZM13.392,7.427V20.97l11.566-6.616Z" fill="#3d362c"/>
</svg>
