<svg id="mobileFooterInstagram" xmlns="http://www.w3.org/2000/svg" width="33.345" height="33.345" viewBox="0 0 33.345 33.345">
  <path id="Instagram" d="M23.412,33.345H9.934A9.945,9.945,0,0,1,0,23.412V9.934A9.945,9.945,0,0,1,9.934,0H23.412a9.945,9.945,0,0,1,9.934,9.934V23.412A9.945,9.945,0,0,1,23.412,33.345ZM9.934,3.354A6.587,6.587,0,0,0,3.354,9.934V23.412A6.586,6.586,0,0,0,9.934,29.99H23.412a6.586,6.586,0,0,0,6.579-6.579V9.934a6.586,6.586,0,0,0-6.579-6.579ZM16.673,25.3A8.624,8.624,0,1,1,25.3,16.673,8.634,8.634,0,0,1,16.673,25.3Zm0-13.893a5.27,5.27,0,1,0,5.27,5.27A5.276,5.276,0,0,0,16.673,11.4Zm8.64-1.223A2.067,2.067,0,1,1,27.38,8.113,2.069,2.069,0,0,1,25.313,10.18Z" fill="#3d362c"/>
</svg>
